<?xml version="1.0" encoding="UTF-8"?>
<svg width="69px" height="67px" viewBox="0 0 69 67" version="1.1" xmlns="http://www.w3.org/2000/svg" xmlns:xlink="http://www.w3.org/1999/xlink">
    <!-- Generator: Sketch 52.4 (67378) - http://www.bohemiancoding.com/sketch -->
    <title>Group 6</title>
    <desc>Created with Sketch.</desc>
    <g id="User" stroke="none" stroke-width="1" fill="none" fill-rule="evenodd">
        <g id="Group-6" transform="translate(1.000000, 1.000000)">
            <ellipse id="Oval" stroke="#0262B2" fill="#00FF00" cx="33.5" cy="32.5" rx="33.5" ry="32.5"></ellipse>
            <path d="M59.6098065,12.0732766 C47.4623427,16.749849 30.0799217,30.2845725 7.46254348,52.677447" id="Path-21" stroke="#0262B2"></path>
            <path d="M14.5449447,5.81096805 C39.6606038,12.2522727 55.2497107,26.9531054 61.3122653,49.9134663" id="Path-22" stroke="#0262B2"></path>
            <path d="M39.8230142,0.713711371 C45.7163069,7.08393812 45.7163069,12.4564608 39.8230142,16.8312793" id="Path-24" stroke="#0262B2"></path>
            <path d="M57.3982164,16.2255813 C61.9176982,21.9245261 61.4193753,27.9614754 55.9032476,34.3364291" id="Path-24" stroke="#0262B2" transform="translate(58.177225, 25.281005) rotate(-85.000000) translate(-58.177225, -25.281005) "></path>
            <path d="M1.42108547e-14,30.5985439 C4.97502899,24.7447198 10.7921864,21.8178077 17.4514723,21.8178077" id="Path-25" stroke="#979797"></path>
            <path d="M1.24344979e-14,30.5985439 C4.97502899,24.7447198 10.7921864,21.8178077 17.4514723,21.8178077" id="Path-25" stroke="#0262B2"></path>
            <path d="M26.832273,59.9199446 C33.6839141,52.1131501 40.508007,48.6551872 47.3045514,49.5460559" id="Path-25" stroke="#0262B2" transform="translate(37.068412, 54.664564) rotate(142.000000) translate(-37.068412, -54.664564) "></path>
            <path d="M17.4514723,21.8178077 C28.6769585,21.8178077 36.1341392,20.1556316 39.8230142,16.8312793" id="Path-26" stroke="#0262B2"></path>
            <path d="M34.5456088,33.1880294 C41.7559696,37.8841118 48.72268,36.0296027 54.3522021,34.3084851" id="Path-26" stroke="#0262B2" transform="translate(44.448905, 34.675229) rotate(107.000000) translate(-44.448905, -34.675229) "></path>
        </g>
    </g>
</svg>